<?xml version="1.0" encoding="UTF-8"?>
<svg id="Layer_1" xmlns="http://www.w3.org/2000/svg" version="1.1" xmlns:xlink="http://www.w3.org/1999/xlink" viewBox="0 0 299.99 174.63">
  <!-- Generator: Adobe Illustrator 30.2.1, SVG Export Plug-In . SVG Version: 2.1.1 Build 1)  -->
  <defs>
    <style>
      .st0 {
        fill: url(#Unnamed_Pattern);
      }

      .st1, .st2 {
        fill: #fff;
      }

      .st3 {
        fill: none;
      }

      .st4, .st2, .st5 {
        isolation: isolate;
      }

      .st6, .st5 {
        fill: #2b2b2b;
      }

      .st2 {
        font-family: JosefinSans-Medium, 'Josefin Sans';
        font-size: 120px;
        font-weight: 500;
      }

      .st2, .st5 {
        letter-spacing: -.05em;
      }

      .st5 {
        font-family: JosefinSans-Bold, 'Josefin Sans';
        font-size: 150px;
        font-weight: 700;
      }
    </style>
    <pattern id="Unnamed_Pattern" data-name="Unnamed Pattern" x="0" y="0" width="119.7" height="164.55" patternTransform="translate(0 174.63)" patternUnits="userSpaceOnUse" viewBox="0 0 119.7 164.55">
      <g>
        <rect class="st3" width="119.7" height="164.55"/>
        <g class="st4">
          <text class="st5" transform="translate(0 127.65)"><tspan x="0" y="0">je</tspan></text>
          <g class="st4">
            <path class="st6" d="M29.25,147.07c2.8-5.15,4.2-11.62,4.2-19.42V62.1H12.45v64.35c0,4.6-.83,8.5-2.48,11.7-1.65,3.2-3.98,5.9-6.98,8.1l12.15,13.05c6.6-3,11.3-7.08,14.1-12.23ZM15.38,46.42c2.45,1.95,5.07,2.92,7.88,2.92s5.37-.98,7.73-2.92c2.35-1.95,3.52-4.47,3.52-7.58s-1.18-5.65-3.52-7.65c-2.35-2-4.93-3-7.73-3s-5.43,1-7.88,3c-2.45,2-3.67,4.55-3.67,7.65s1.22,5.62,3.67,7.58Z"/>
            <path class="st6" d="M91.27,127.65c4.05-1.2,7.82-2.8,11.33-4.8l-9.3-15.6c-2.1,1.3-4.23,2.35-6.38,3.15-2.15.8-4.38,1.2-6.67,1.2-3.2,0-6.1-.7-8.7-2.1-2.6-1.4-4.65-3.47-6.15-6.22-1.5-2.75-2.25-6.17-2.25-10.28,0-3.6.62-6.72,1.88-9.38,1.25-2.65,3.05-4.7,5.4-6.15,2.35-1.45,5.07-2.17,8.18-2.17,4.1,0,7.17.97,9.23,2.92,2.05,1.95,3.47,4.23,4.27,6.83l4.35-1.95-36.9,12.45,4.65,11.4,51-16.2c-1.8-10.3-5.73-18.17-11.78-23.63-6.05-5.45-13.78-8.17-23.17-8.17-7,0-13.35,1.58-19.05,4.73-5.7,3.15-10.25,7.38-13.65,12.67-3.4,5.3-5.1,11.25-5.1,17.85s1.45,13,4.35,18.3c2.9,5.3,7.12,9.45,12.68,12.45,5.55,3,12.32,4.5,20.32,4.5,3.6,0,7.43-.6,11.48-1.8Z"/>
          </g>
        </g>
      </g>
    </pattern>
  </defs>
  <path class="st6" d="M137.83,91.76c0,22.58,11.19,42.54,28.31,54.67V37.09c-17.12,12.13-28.31,32.09-28.31,54.67Z"/>
  <path class="st6" d="M204.8,24.79c-9.28,0-18.12,1.89-26.16,5.3v123.33c8.04,3.41,16.88,5.3,26.16,5.3,36.99,0,66.97-29.98,66.97-66.97s-29.98-66.97-66.97-66.97Z"/>
  <path class="st1" d="M166.14,37.09v109.34c3.88,2.75,8.06,5.11,12.5,7V30.09c-4.44,1.88-8.62,4.25-12.5,7Z"/>
  <g class="st4">
    <text class="st5" transform="translate(16.38 127.65)"><tspan x="0" y="0">je</tspan></text>
    <g class="st4">
      <path class="st0" d="M31.53,159.3l-12.15-13.05c3-2.2,5.33-4.9,6.98-8.1,1.65-3.2,2.48-7.1,2.48-11.7V62.1h21v65.55c0,7.8-1.4,14.27-4.2,19.42-2.8,5.15-7.5,9.23-14.1,12.23ZM28.08,38.85c0-3.1,1.22-5.65,3.67-7.65,2.45-2,5.07-3,7.88-3s5.37,1,7.73,3c2.35,2,3.52,4.55,3.52,7.65s-1.18,5.62-3.52,7.58c-2.35,1.95-4.93,2.92-7.73,2.92s-5.43-.98-7.88-2.92c-2.45-1.95-3.67-4.47-3.67-7.58Z"/>
      <path class="st0" d="M96.18,129.45c-8,0-14.77-1.5-20.32-4.5-5.55-3-9.78-7.15-12.68-12.45-2.9-5.3-4.35-11.4-4.35-18.3s1.7-12.55,5.1-17.85c3.4-5.3,7.95-9.53,13.65-12.67,5.7-3.15,12.05-4.73,19.05-4.73,9.4,0,17.12,2.73,23.17,8.17,6.05,5.45,9.98,13.33,11.78,23.63l-51,16.2-4.65-11.4,36.9-12.45-4.35,1.95c-.8-2.6-2.23-4.88-4.27-6.83-2.05-1.95-5.13-2.92-9.23-2.92-3.1,0-5.83.73-8.18,2.17-2.35,1.45-4.15,3.5-5.4,6.15-1.25,2.65-1.88,5.78-1.88,9.38,0,4.1.75,7.53,2.25,10.28,1.5,2.75,3.55,4.83,6.15,6.22,2.6,1.4,5.5,2.1,8.7,2.1,2.3,0,4.52-.4,6.67-1.2,2.15-.8,4.28-1.85,6.38-3.15l9.3,15.6c-3.5,2-7.27,3.6-11.33,4.8-4.05,1.2-7.88,1.8-11.48,1.8Z"/>
    </g>
  </g>
  <g class="st4">
    <text class="st2" transform="translate(184.52 129.14)"><tspan x="0" y="0">a</tspan></text>
  </g>
</svg>